<?xml version="1.0" encoding="UTF-8"?>
<!DOCTYPE svg PUBLIC "-//W3C//DTD SVG 1.1//EN" "http://www.w3.org/Graphics/SVG/1.1/DTD/svg11.dtd">
<!-- Creator: CorelDRAW 2021 (64-Bit) -->
<svg xmlns="http://www.w3.org/2000/svg" xml:space="preserve" width="43.3492mm" height="43.3492mm" version="1.1" style="shape-rendering:geometricPrecision; text-rendering:geometricPrecision; image-rendering:optimizeQuality; fill-rule:evenodd; clip-rule:evenodd"
viewBox="0 0 4334.92 4334.92"
 xmlns:xlink="http://www.w3.org/1999/xlink"
 xmlns:xodm="http://www.corel.com/coreldraw/odm/2003">
 <defs>
  <style type="text/css">
   <![CDATA[
    .fil0 {fill:black;fill-rule:nonzero}
   ]]>
  </style>
 </defs>
 <g id="Capa_x0020_1">
  <metadata id="CorelCorpID_0Corel-Layer"/>
  <path class="fil0" d="M1197.81 3979.67c51.91,-162.46 123.02,-382.52 157.95,-489.03 35.05,-106.49 58.05,-199.23 51.12,-206.18 -6.84,-6.82 -55.98,-2.64 -109.17,9.26 -128.71,28.89 -137.26,12.49 -20.81,-39.67 80.7,-36.09 88.1,-44.52 49.74,-56.78 -24.88,-7.87 -55.3,-26.58 -67.77,-41.62 -17.58,-21.04 -2.1,-25.33 67.64,-18.74 89.38,8.56 90.21,8 75.49,-55.03 -8.08,-35.05 -43.81,-121.31 -79.31,-191.84 -64.41,-127.42 -56.66,-138.64 37.45,-53.88 58.17,52.27 56.1,56.54 94.5,-195.44 52.59,-344.69 240.87,-837.31 490.03,-1281.9 279.15,-498.06 749.44,-1131.25 927.86,-1249.43 96.68,-63.97 155.65,-54.94 240.63,36.88 95.65,103.14 120.73,272.56 71.82,485.19 -38.15,166.31 -222.14,512.15 -334.66,629.17 -95.37,99.46 -93.78,112.75 8.92,70.42 36.2,-14.92 36.52,-9.95 4.74,80.01 -53.2,151.04 -135.88,276.97 -214.98,327.62 -85.67,54.79 -66.49,62.43 30.55,12.25l67.88 -35.05 -41.18 70.78c-22.68,38.96 -76.08,100.71 -118.88,137.15 -64.62,55.15 -68.92,63.71 -25.55,50.86 60.6,-17.92 58.29,-3.35 -34.81,222.01 -150.09,363.11 -347.83,573.91 -648,690.8l-79.8 31 126.4 -7.28c91.23,-5.45 151.24,-23.95 216.45,-67.08 49.49,-32.83 90.08,-51.33 90.08,-41.15 0,38.84 -163.49,207.34 -240.96,248.16 -51.81,27.38 -66.49,43.13 -40.59,43.81 22.09,0.59 59.53,-9.36 83.24,-21.97 69.04,-36.99 50.09,12.03 -32.82,84.87 -82.33,72.27 -165.61,104.2 -329.69,126.41 -103.13,13.97 -104.88,15.48 -72.14,62.19 53.52,76.56 38.84,94.58 -22.91,27.98 -66.25,-71.34 -74.68,-33.19 127.55,-578.29 314.65,-847.93 675.29,-1617.35 988.66,-2109.17 54.47,-85.43 83.72,-140.37 65.01,-122.11 -74.36,72.74 -335.57,519.44 -512.74,876.98 -327.14,660.16 -550.87,1217.51 -877.32,2185.27 -117.15,347 -224.45,634.83 -238.42,639.56 -14.13,4.62 16.64,-123.82 68.8,-286.99z"/>
 </g>
</svg>
