<?xml version="1.0" encoding="UTF-8"?>
<!DOCTYPE svg PUBLIC "-//W3C//DTD SVG 1.1//EN" "http://www.w3.org/Graphics/SVG/1.1/DTD/svg11.dtd">
<!-- Creator: CorelDRAW 2021 (64-Bit) -->
<svg xmlns="http://www.w3.org/2000/svg" xml:space="preserve" width="43.3492mm" height="43.3492mm" version="1.1" style="shape-rendering:geometricPrecision; text-rendering:geometricPrecision; image-rendering:optimizeQuality; fill-rule:evenodd; clip-rule:evenodd"
viewBox="0 0 4334.92 4334.92"
 xmlns:xlink="http://www.w3.org/1999/xlink"
 xmlns:xodm="http://www.corel.com/coreldraw/odm/2003">
 <defs>
  <style type="text/css">
   <![CDATA[
    .fil0 {fill:black;fill-rule:nonzero}
   ]]>
  </style>
 </defs>
 <g id="Capa_x0020_1">
  <metadata id="CorelCorpID_0Corel-Layer"/>
  <path class="fil0" d="M2597.13 3870.37c-114.36,-14.69 -276.76,-55.71 -375.8,-94.82 -126.61,-49.92 -272.26,-132.93 -381.75,-217.46 -61.9,-47.85 -177.62,-162.75 -229.16,-227.55 -116.81,-146.71 -202.34,-316.67 -246.59,-489.98 -17.48,-68.31 -37.21,-198.18 -37.4,-246.03 -0.09,-17.58 -2.16,-31.91 -4.59,-31.91 -2.44,0 -79.4,60.19 -171.05,133.84 -91.66,73.62 -287.85,231.24 -435.92,350.28 -171.48,137.81 -284.88,223.61 -312.08,236.23 -55.88,25.68 -130.95,27.19 -183.57,3.5 -79.23,-35.69 -149.61,-130.3 -160.25,-215.66 -6.58,-52.44 11.37,-115.45 43.18,-151.67 12.97,-14.86 54.34,-51.54 91.92,-81.46 89.12,-71.29 725.28,-573.71 948.07,-748.82 347.59,-273.34 485.58,-384.36 509.18,-409.78l27.94 -30.2 -422.75 -3.95c-471.96,-4.52 -463.87,-3.62 -535.16,-57.95 -119.66,-91.2 -92.53,-253.87 54.8,-328.48 92.47,-46.89 46.88,-44.44 944.91,-49.68 481.79,-2.78 830.39,-7.66 845.62,-11.87l25.95 -7.23 -276.32 -224.57c-152.03,-123.57 -281.25,-234.14 -287.3,-245.68 -16.77,-32.35 -13.15,-73.53 10.82,-123.36 26.76,-55.88 66.52,-94.64 123.64,-120.78 36.78,-16.74 51.82,-19.54 94.18,-17.12 65.08,3.7 110.67,26.05 207.91,102.39 41.37,32.35 247.83,190.59 458.72,351.65 210.96,160.94 422.22,322.62 469.51,359.21 47.23,36.59 105.71,76.53 129.96,88.78 124.91,62.98 258.65,160.85 363.74,265.94 475.83,475.74 520.71,1173.63 108.94,1690.93 -236.83,297.5 -602.08,497.83 -1002.94,549.92 -95.07,12.34 -312.01,14.23 -396.36,3.34zm341.82 -642.84c389.25,-68.04 680.96,-345.6 726.57,-691.23 30.73,-232.95 -72.56,-479.53 -271.91,-649.31 -364.7,-310.55 -923.37,-296.23 -1251.76,32.25 -305.78,305.69 -303.45,769.65 5.31,1068.83 130.86,126.8 287.21,206.21 471.96,239.64 79.04,14.33 237.65,14.24 319.83,-0.18zm-185 -274.78c-189.81,-15.6 -379.31,-137.43 -458.81,-294.96 -41.28,-81.64 -52.54,-123.56 -56.78,-211.79 -4.68,-96.25 5.68,-148.42 46.78,-235.39 65.06,-137.71 192.05,-243.77 353.36,-294.87 72.28,-22.98 233.22,-29.21 306.68,-11.99 73.18,17.2 153.56,50.01 205.13,83.72 58.39,38.13 143.35,124.81 175.35,178.89 47.51,80.21 62.92,134.55 66.79,234.77 4.23,108.59 -6.13,158.71 -51.65,249.72 -102.27,204.32 -332.64,322.8 -586.85,301.9z"/>
 </g>
</svg>
