<?xml version="1.0" encoding="UTF-8"?>
<!DOCTYPE svg PUBLIC "-//W3C//DTD SVG 1.1//EN" "http://www.w3.org/Graphics/SVG/1.1/DTD/svg11.dtd">
<!-- Creator: CorelDRAW 2021 (64-Bit) -->
<svg xmlns="http://www.w3.org/2000/svg" xml:space="preserve" width="43.3492mm" height="43.3492mm" version="1.1" style="shape-rendering:geometricPrecision; text-rendering:geometricPrecision; image-rendering:optimizeQuality; fill-rule:evenodd; clip-rule:evenodd"
viewBox="0 0 4334.92 4334.92"
 xmlns:xlink="http://www.w3.org/1999/xlink"
 xmlns:xodm="http://www.corel.com/coreldraw/odm/2003">
 <defs>
  <style type="text/css">
   <![CDATA[
    .fil0 {fill:black;fill-rule:nonzero}
   ]]>
  </style>
 </defs>
 <g id="Capa_x0020_1">
  <metadata id="CorelCorpID_0Corel-Layer"/>
  <path class="fil0" d="M2021.18 4302.45c-16.62,-1.85 -70.82,-7.7 -120.51,-13 -320.01,-34.08 -674.94,-165.36 -952.8,-352.54 -55.76,-37.62 -107.99,-73.45 -115.98,-79.75 -12.62,-9.85 -31.15,-203.66 -139.82,-1463.32 -68.92,-798.53 -125.28,-1455.62 -125.28,-1460.16 0,-5.31 578.81,-8.31 1600.67,-8.31 1021.86,0 1600.68,3 1600.68,8.31 0,4.54 -56.39,661.63 -125.3,1460.16 -108.66,1259.66 -127.2,1453.47 -139.81,1463.32 -65.3,50.99 -237.02,158.03 -326.86,203.71 -236.87,120.46 -459.37,190.98 -711.85,225.73 -91.06,12.54 -381.01,22.91 -443.14,15.85zm555.82 -575.43c225.33,-63.6 411.6,-117.42 413.91,-119.75 2.99,-2.99 104.44,-1157.53 105.74,-1203.82 0.16,-3.46 -169.2,-7.38 -376.3,-8.62l-376.46 -2.22 387.23 -196.89c213.02,-108.2 390.06,-199.42 393.6,-202.49 3.47,-3.15 12.15,-75.21 19.24,-160.29 7.15,-85.05 15.22,-174.94 18,-199.79l5 -45.15 -1998.6 0 5.01 49.46c8.07,80.29 30.22,337.01 30.22,350.85 0,11.06 52.13,12.83 398.07,13.23l397.98 0.45 -378.68 189.81c-208.27,104.37 -379.77,190.8 -381.07,192.04 -1.4,1.23 5.37,94.37 14.98,206.95 9.71,112.59 17.62,207.97 17.62,211.96 0,4 307.87,7.22 684.09,7.22l684.17 0 0 19.4c-0.08,29.98 -41.84,481.52 -44.75,483.5 -1.4,1.01 -98.68,27.63 -216.12,59.15l-213.5 57.37 -222.34 -62.06 -222.26 -62.05 -5.22 -38c-2.86,-20.93 -5.23,-82.99 -5.32,-137.98 -0.07,-54.91 -2.45,-108.6 -5.29,-119.21l-5.24 -19.38 -205.5 0c-158.81,0 -205.49,2.46 -205.33,10.77 0.08,5.93 11.53,144.28 25.37,307.47 18.46,216.73 28.22,297.87 36.37,300.86 14.24,5.24 800.76,230.57 809.23,231.89 3.54,0.53 190.72,-51.07 416.15,-114.68zm-1338.96 -3391.15l0 -305.7 281.86 2.23 281.79 2.22 2.47 79.6 2.53 79.68 -413.77 0 0 283.94 413.77 0 -2.53 79.6 -2.47 79.6 -281.79 2.31 -281.86 2.24 0 -305.72zm654.03 223.88l0 -81.91 404.45 0 0 -68.83 -404.45 0 0 -378.84 281.85 2.23 281.8 2.22 0 163.51 -204.34 2.38 -204.43 2.31 0 68.53 413.45 0 -2.3 182.89 -2.38 182.8 -281.8 2.31 -281.85 2.24 0 -81.84zm642.54 75.91c-3.15,-3.14 -5.77,-39.98 -5.77,-81.76l0 -76.06 404.54 0 0 -68.83 -404.83 0 2.3 -187.19 2.38 -187.12 281.8 -2.3 281.86 -2.23 0 172.35 -414.15 0 2.7 32.23 2.68 32.29 204.34 2.3 204.43 2.33 0 369.69 -278.26 0c-153.04,0 -280.85,-2.54 -284.02,-5.7z"/>
 </g>
</svg>
