<?xml version="1.0" encoding="UTF-8"?>
<!DOCTYPE svg PUBLIC "-//W3C//DTD SVG 1.1//EN" "http://www.w3.org/Graphics/SVG/1.1/DTD/svg11.dtd">
<!-- Creator: CorelDRAW 2021 (64-Bit) -->
<svg xmlns="http://www.w3.org/2000/svg" xml:space="preserve" width="43.3492mm" height="43.3492mm" version="1.1" style="shape-rendering:geometricPrecision; text-rendering:geometricPrecision; image-rendering:optimizeQuality; fill-rule:evenodd; clip-rule:evenodd"
viewBox="0 0 4334.92 4334.92"
 xmlns:xlink="http://www.w3.org/1999/xlink"
 xmlns:xodm="http://www.corel.com/coreldraw/odm/2003">
 <defs>
  <style type="text/css">
   <![CDATA[
    .fil0 {fill:black;fill-rule:nonzero}
   ]]>
  </style>
 </defs>
 <g id="Capa_x0020_1">
  <metadata id="CorelCorpID_0Corel-Layer"/>
  <path class="fil0" d="M2007.66 4235.23c-14.25,-4.14 -33.41,-18.06 -42.63,-30.99 -15.27,-21.49 -16.7,-35.19 -16.7,-161.19 0,-126.45 1.35,-139.48 16.62,-158.85 24.19,-30.78 61.92,-37.81 202.62,-37.81 143.84,0 179.12,6.94 202.66,40.01 15.11,21.23 16.59,35.36 16.59,158.81 0,197.05 -2.59,199.37 -223.31,198.19 -71.47,-0.38 -141.59,-4.06 -155.85,-8.17zm-137.58 -642.72c-464.67,-446.61 -897.15,-1060.24 -1117.42,-1585.48 -177.25,-422.63 -217.63,-797.89 -117.99,-1096.23 87.66,-262.43 279.8,-469.41 570.66,-614.73 94.09,-47.03 92.65,-43.9 -11.98,26.82 -182.83,123.54 -335.38,324.35 -406.01,534.45 -37.81,112.5 -50.37,193.62 -54.72,354.04 -3.56,131.91 -1.61,170.99 13.32,267.96 41.74,270.85 128.66,532.85 280.06,844.38 203.56,418.96 555.14,931.8 872.46,1272.85 62.01,66.61 71.9,79.17 62.17,79.17 -2.2,0 -42.92,-37.43 -90.55,-83.23zm32.4 -61.24c-222.12,-323.84 -392.31,-605.72 -547.61,-907.1 -289.96,-562.58 -430.54,-1006.52 -430.67,-1360.14 -0.17,-439.26 167.4,-764.27 513.18,-995.32 153.28,-102.43 266.03,-144.18 437.87,-162.07l52.78 -5.5 -68.86 51.52c-306.24,229.14 -483.2,571.46 -527.77,1020.91 -58.24,587.61 186.67,1473.95 652.92,2362.77 38.27,72.96 69.57,134.2 69.57,136.02 0,1.86 -11.89,3.22 -26.4,3.04 -24.95,-0.38 -31.75,-8.2 -125.01,-144.13zm153.52 -11.84c-227.41,-836.09 -343.84,-1570 -345.57,-2178.26 -0.67,-233.07 5.75,-321.21 35.82,-491.27 43.01,-243.4 135.72,-483.07 262.6,-679.01l48 -74.1 53.33 -4.02c29.31,-2.19 78.92,-1.73 110.18,1.01l56.84 4.99 46.6 69.02c87.59,129.81 175.51,324.56 221.79,491.28 59.37,214.05 80.22,393.29 79.34,682.1 -1.95,604.49 -117.92,1339.3 -341.27,2162.02l-46.81 172.55 -138.34 0 -42.51 -156.31zm225.26 153.44c0,-1.62 31.42,-62.81 69.78,-136.02 279.51,-532.97 492.33,-1099.06 591.04,-1572.07 51.52,-246.86 65.3,-376.95 64.79,-611.43 -0.42,-188.07 -2.45,-218.19 -22.32,-328.87 -66.87,-372.25 -240.99,-671.52 -506.89,-870.98 -77.19,-57.9 -78.62,-57.17 68.05,-35.31 87.17,13.02 108.31,19.63 191.08,59.72 376.53,182.41 601.96,479.81 661.25,872.5 17.22,113.93 17.42,297.02 0.42,418.19 -73.59,525.45 -428.51,1282.32 -971.04,2070.84 -88.1,128.06 -94.86,135.71 -119.78,136.01 -14.51,0.17 -26.38,-0.98 -26.38,-2.58zm104.12 -19.21c10.15,-14.38 21.86,-28.24 26.05,-30.82 10.32,-6.39 153.95,-171.12 219.33,-251.61 465.05,-572.26 813,-1217.65 925.58,-1716.97 40.69,-180.54 50.8,-279.04 45.81,-447.07 -4.83,-162.53 -15.1,-227.71 -55.07,-349.17 -74.56,-226.65 -233.62,-429.96 -437.56,-559.15 -67.16,-42.55 -58.23,-42.6 26.56,-0.18 229.43,114.88 398.91,273.01 503.75,470 126.88,238.41 147.98,543.85 61.41,889.17 -137.11,546.98 -574.34,1253.99 -1131,1828.87 -65.85,67.97 -138.51,139.24 -161.52,158.35 -39.71,33.03 -40.85,33.45 -23.34,8.58z"/>
 </g>
</svg>
