<?xml version="1.0" encoding="UTF-8"?>
<!DOCTYPE svg PUBLIC "-//W3C//DTD SVG 1.1//EN" "http://www.w3.org/Graphics/SVG/1.1/DTD/svg11.dtd">
<!-- Creator: CorelDRAW 2021 (64-Bit) -->
<svg xmlns="http://www.w3.org/2000/svg" xml:space="preserve" width="43.3492mm" height="43.3492mm" version="1.1" style="shape-rendering:geometricPrecision; text-rendering:geometricPrecision; image-rendering:optimizeQuality; fill-rule:evenodd; clip-rule:evenodd"
viewBox="0 0 4334.92 4334.92"
 xmlns:xlink="http://www.w3.org/1999/xlink"
 xmlns:xodm="http://www.corel.com/coreldraw/odm/2003">
 <defs>
  <style type="text/css">
   <![CDATA[
    .fil0 {fill:black;fill-rule:nonzero}
   ]]>
  </style>
 </defs>
 <g id="Capa_x0020_1">
  <metadata id="CorelCorpID_0Corel-Layer"/>
  <path class="fil0" d="M848.75 4223.04c-276.36,-60.05 -539.91,-271.28 -663.1,-531.32 -131.08,-276.77 -130.01,-570.63 2.99,-847.88 60.64,-126.36 107.45,-181 467.72,-546.01 607.02,-614.73 761.94,-740.5 1035.34,-840.24 304.46,-111.01 610.09,-57.03 831.08,146.65 108.98,100.41 135.72,187.47 92.37,300.81 -59.09,154.75 -248.68,210.72 -383.34,113.33 -130.31,-94.23 -166.13,-107.06 -276.86,-99.05 -171.44,12.36 -268.26,85.53 -788.1,594.84 -512.42,502.19 -564.17,570.15 -564.17,742.18 0,147.58 35.64,234.57 138.34,337.77 108.12,108.49 213.82,147.29 366.45,134.37 140.27,-11.97 206.2,-50.29 408.82,-237.57 175.32,-161.99 182.75,-166.61 270.02,-166.61 172.22,0 285.46,136.78 254.07,306.68 -11.19,60.52 -44.88,104.07 -192.79,249.36 -323,317.38 -630.18,422.81 -998.84,342.69zm1366.45 -1252.74c-208.9,-40.73 -480.74,-237.77 -506.61,-367.01 -39,-195.39 141.52,-360.77 327.07,-299.56 35.14,11.68 79.45,38.32 98.56,59.47 63.13,69.79 172.79,113.43 260.25,103.57 146.64,-16.51 262.1,-110.42 790.54,-643.01 547.04,-551.41 550.53,-556.13 549.66,-753.54 -1.35,-298.21 -359.6,-552.95 -622.84,-442.91 -36.2,15.15 -151.37,110.52 -255.83,211.99 -104.36,101.45 -212.47,190.17 -240.28,197.11 -148.65,37.37 -304.36,-68.43 -321.17,-218.16 -13.12,-116.53 16.24,-162.17 249.75,-387.78 229.36,-221.64 354.19,-295.58 560.96,-332.56 385.37,-68.82 847.97,172.7 1033.12,539.64 158.71,314.31 142.1,694.55 -42.68,976.06 -64.77,98.55 -994.59,1030.89 -1141.24,1144.13 -121.04,93.54 -295.57,175.58 -437.3,205.61 -140.17,29.73 -180.79,30.69 -301.96,6.95z"/>
 </g>
</svg>
