<?xml version="1.0" encoding="UTF-8"?>
<!DOCTYPE svg PUBLIC "-//W3C//DTD SVG 1.1//EN" "http://www.w3.org/Graphics/SVG/1.1/DTD/svg11.dtd">
<!-- Creator: CorelDRAW 2021 (64-Bit) -->
<svg xmlns="http://www.w3.org/2000/svg" xml:space="preserve" width="43.3492mm" height="43.3492mm" version="1.1" style="shape-rendering:geometricPrecision; text-rendering:geometricPrecision; image-rendering:optimizeQuality; fill-rule:evenodd; clip-rule:evenodd"
viewBox="0 0 4334.92 4334.92"
 xmlns:xlink="http://www.w3.org/1999/xlink"
 xmlns:xodm="http://www.corel.com/coreldraw/odm/2003">
 <defs>
  <style type="text/css">
   <![CDATA[
    .fil0 {fill:black;fill-rule:nonzero}
   ]]>
  </style>
 </defs>
 <g id="Capa_x0020_1">
  <metadata id="CorelCorpID_0Corel-Layer"/>
  <path class="fil0" d="M262.1 3727.48c-84.79,-41.99 -181.91,-151.19 -206.09,-231.88 -13.54,-45.21 -18.46,-406.52 -18.46,-1342.11 0,-1266.93 0.31,-1280.98 33.03,-1350.56 37.63,-80.04 134.41,-174.22 212.73,-206.91 44.39,-18.57 348.42,-22.11 1887.48,-21.78 2067.26,0.32 1899.79,-9.86 2019.61,123 113.13,125.48 106.91,39.78 106.91,1458.37 0,933.98 -5.03,1294.78 -18.58,1339.99 -24.34,81.01 -129.35,199.08 -209.62,235.58 -60.65,27.51 -153.08,28.92 -1901.68,29.24l-1838.01 0.33 -67.32 -33.27zm3510.7 -1335.36c2.21,-609.56 -1.48,-1108.34 -8.31,-1108.34 -6.73,0 -367.05,273.22 -800.75,607.08 -433.62,333.88 -792.04,607.09 -796.31,607.09 -4.36,-0.08 -362.81,-273.21 -796.5,-607.09 -433.7,-333.86 -794.02,-607.08 -800.67,-607.08 -14.87,0 -16.37,2199.32 -1.49,2214.11 5.76,5.83 728.22,8.8 1605.3,6.58l1594.71 -4.03 4.02 -1108.32zm-1214.57 -868.63c205.84,-163.2 480.86,-380.54 611.03,-483.09 130.15,-102.47 238.95,-192.54 241.91,-200.17 2.94,-7.98 -529.43,-13.98 -1243.74,-13.98 -692.4,0 -1246.71,6.09 -1243.75,13.66 8.63,22.42 1218.42,977.49 1240.13,978.98 11,0.74 188.5,-132.23 394.42,-295.4z"/>
 </g>
</svg>
