<?xml version="1.0" encoding="UTF-8"?>
<!DOCTYPE svg PUBLIC "-//W3C//DTD SVG 1.1//EN" "http://www.w3.org/Graphics/SVG/1.1/DTD/svg11.dtd">
<!-- Creator: CorelDRAW 2021 (64-Bit) -->
<svg xmlns="http://www.w3.org/2000/svg" xml:space="preserve" width="43.3492mm" height="43.3492mm" version="1.1" style="shape-rendering:geometricPrecision; text-rendering:geometricPrecision; image-rendering:optimizeQuality; fill-rule:evenodd; clip-rule:evenodd"
viewBox="0 0 4334.92 4334.92"
 xmlns:xlink="http://www.w3.org/1999/xlink"
 xmlns:xodm="http://www.corel.com/coreldraw/odm/2003">
 <defs>
  <style type="text/css">
   <![CDATA[
    .fil0 {fill:black;fill-rule:nonzero}
   ]]>
  </style>
 </defs>
 <g id="Capa_x0020_1">
  <metadata id="CorelCorpID_0Corel-Layer"/>
  <path class="fil0" d="M2018.58 4283.65c-333.23,-28.77 -585.78,-100.23 -866.19,-244.99 -116.96,-60.34 -303.75,-180.72 -316.95,-204.19 -3.86,-6.85 -61.05,-644.49 -127.12,-1416.92 -66.07,-772.45 -122.44,-1424.67 -125.28,-1449.38l-5.15 -44.95 1589.54 0c874.27,0 1589.55,2.88 1589.6,6.39 0,3.56 -56.13,657.46 -124.74,1453.15 -108.01,1253.06 -126.66,1448.2 -139.16,1457.91 -66.44,51.56 -223.33,149.41 -318.46,198.61 -236.38,122.23 -461,194.02 -715.08,228.57 -92.53,12.59 -365.33,22.37 -441.01,15.8zm573.19 -585.11c212.88,-60.33 390.01,-113.15 393.61,-117.29 5.01,-5.77 105.78,-1164.67 103.98,-1195.82 -0.2,-3.51 -321.88,-6.39 -714.9,-6.39l-714.53 0 -4.76 -36.43c-6.49,-49.25 -30.53,-316.57 -30.53,-339.32l0 -18.19 1497.6 0 4.67 -36.38c5.4,-41.73 30.62,-332.26 30.62,-352.62 0,-12.21 -94.25,-13.51 -990.1,-13.51l-990.08 0 5.1 44.99c2.81,24.72 24.46,280.04 48.13,567.34 23.67,287.31 45.17,538.75 47.8,558.78l4.76 36.37 1359.31 0 -4.51 44.95c-2.51,24.76 -12.8,137.45 -22.92,250.52l-18.4 205.52 -213.5 58.54 -213.5 58.58 -206.11 -57.5c-113.4,-31.57 -214.8,-60.71 -225.43,-64.77 -18.14,-6.85 -19.23,-12.09 -19.31,-90.99 0,-46.03 -2.51,-115.49 -5.52,-154.34l-5.52 -70.66 -408.53 0 0.37 27.84c0.76,57.34 48.63,580.65 53.61,585.62 13.05,13.05 808.61,232.82 829.14,229.02 12.34,-2.26 196.62,-53.52 409.45,-113.86zm-1712.18 -3349.1l0 -299.73 188.41 0 0 205.52 196.96 0 0 -205.52 188.4 0 0 599.45 -188.4 0 0 -196.94 -196.96 0 0 196.94 -188.41 0 0 -299.72zm839.26 102.78l0 -196.99 -179.85 0 0 -205.52 573.74 0 0 205.52 -188.37 0 0 393.93 -205.52 0 0 -196.94zm471 -102.78l0 -299.73 201.59 0 67.07 102.79c36.92,56.48 69.58,102.48 72.63,102.18 3.05,-0.33 35.34,-46.58 71.71,-102.77l66.24 -102.2 197.28 0 0 599.45 -196.57 0 -2.35 -143.12 -2.33 -143.09 -64.23 99.76c-35.33,54.91 -66.65,100.03 -69.66,100.31 -2.98,0.3 -34.75,-44.24 -70.63,-98.93l-65.23 -99.47 0 284.54 -205.52 0 0 -299.72zm779.26 -0.25l0 -300.03 100.64 2.43 100.61 2.38 4.61 406.77 282.29 0 0 188.42 -488.15 0 0 -299.97z"/>
 </g>
</svg>
