<?xml version="1.0" encoding="UTF-8"?>
<!DOCTYPE svg PUBLIC "-//W3C//DTD SVG 1.1//EN" "http://www.w3.org/Graphics/SVG/1.1/DTD/svg11.dtd">
<!-- Creator: CorelDRAW 2021 (64-Bit) -->
<svg xmlns="http://www.w3.org/2000/svg" xml:space="preserve" width="43.3492mm" height="43.3492mm" version="1.1" style="shape-rendering:geometricPrecision; text-rendering:geometricPrecision; image-rendering:optimizeQuality; fill-rule:evenodd; clip-rule:evenodd"
viewBox="0 0 4334.92 4334.92"
 xmlns:xlink="http://www.w3.org/1999/xlink"
 xmlns:xodm="http://www.corel.com/coreldraw/odm/2003">
 <defs>
  <style type="text/css">
   <![CDATA[
    .fil0 {fill:black;fill-rule:nonzero}
   ]]>
  </style>
 </defs>
 <g id="Capa_x0020_1">
  <metadata id="CorelCorpID_0Corel-Layer"/>
  <path class="fil0" d="M2038.23 4049.89c-53.69,-19.99 -88.87,-53.88 -99.73,-96.07 -20.86,-80.97 -30.78,-103.92 -59.05,-136.13 -40.48,-46.1 -86.71,-66.96 -206.9,-93.57 -121.5,-26.84 -160.97,-43.62 -193.38,-82.16 -40.81,-48.44 -27.83,-86.2 65.23,-190.16 69.42,-77.52 80.92,-96.96 81.37,-137.62 0.74,-67.15 -83.6,-111.52 -444.93,-234.19 -346.99,-117.73 -445.28,-167.61 -445.28,-225.84 0,-34.88 50.63,-73.28 190.41,-144.37 124.95,-63.52 188.55,-108.27 188.55,-132.64 0,-37.01 -136.83,-92.72 -431.07,-175.52 -208.18,-58.58 -332.38,-115.02 -377.33,-171.42 -69.28,-86.89 -32.61,-202.01 114.24,-358.43 344.71,-367.26 1414.91,-1471.98 1460.26,-1507.26 144.68,-112.74 368.06,-117.14 525.76,-10.41 31.39,21.22 274.94,266.7 608.61,613.3 1025.56,1065.38 974.19,1010.3 1011.93,1085.65 60.31,120.6 45.94,196.88 -56.15,298.43 -58.08,57.79 -85.37,76 -194.76,129.73 -125.23,61.53 -162.04,76.03 -510.9,201.27 -179.95,64.6 -335.98,138.51 -354.29,167.86 -19.74,31.58 23.64,70.67 170.63,153.96 106.44,60.3 174.19,123.27 174.09,161.71 -0.11,35.57 -46.83,117.23 -85.91,150.1 -46.03,38.73 -88.67,57.39 -207.69,90.68 -140.42,39.34 -243.41,87.99 -329.27,155.64 -77.02,60.64 -103.37,99.23 -87.78,128.44 5.48,10.16 36.91,33.55 69.86,52.01 73.98,41.35 95.25,63.35 86.81,89.95 -15.45,48.56 -208.53,156.76 -355.42,199.2 -83.5,24.09 -263.1,34.49 -307.91,17.86zm295.27 -1139.63c125.48,-58.38 74.01,-119.17 -168.3,-198.87 -172.22,-56.59 -584.18,-147.63 -668.27,-147.63 -42.93,0 -45.49,11.31 -10.21,44.91 124.98,118.87 600.16,322.74 755.2,324.03 25.81,0.26 61.92,-8.64 91.58,-22.44zm-548.79 -1315.12l191.94 -191.74 191.84 191.01 191.86 191.06 377.07 -189.58 95.69 94.79 95.68 94.74 111.95 -56.5c61.58,-31.09 110.63,-60.25 108.95,-64.85 -5.23,-14.44 -939.01,-980.3 -959.38,-992.39 -34.69,-20.52 -69.68,-14.26 -103.78,18.6 -28.81,27.84 -954.2,992.06 -1022.88,1065.82l-28.68 30.8 557.78 0 191.96 -191.76zm-821.78 2072c-68.74,-30.8 -123.16,-100.97 -123.16,-158.85 0,-165.98 392.33,-274.83 540.02,-149.8l33.16 28.08 -28.32 55.21c-37.61,73.32 -137.33,172.36 -208.73,207.3 -68.54,33.5 -160.96,41.34 -212.97,18.06zm2392.18 3.55c-53.19,-29.27 -67.06,-92.23 -32.71,-148.58 16.62,-27.28 22.94,-30.83 44.96,-25.31 66.55,16.58 125.02,77.42 125.08,130.17 0.1,44.26 -86.35,71.8 -137.33,43.72zm303.17 -377.43c-120.55,-18.11 -172.96,-46.04 -162.79,-86.59 17.42,-69.44 108.36,-147.4 204.68,-175.48 65.67,-19.14 169.7,-13.27 228.76,12.93 81.47,36.13 143.75,125.23 128.89,184.45 -12.14,48.25 -105.15,74.86 -255.56,72.98 -53.14,-0.65 -117.93,-4.39 -143.98,-8.29z"/>
 </g>
</svg>
