<?xml version="1.0" encoding="UTF-8"?>
<!DOCTYPE svg PUBLIC "-//W3C//DTD SVG 1.1//EN" "http://www.w3.org/Graphics/SVG/1.1/DTD/svg11.dtd">
<!-- Creator: CorelDRAW 2021 (64-Bit) -->
<svg xmlns="http://www.w3.org/2000/svg" xml:space="preserve" width="43.3492mm" height="43.3492mm" version="1.1" style="shape-rendering:geometricPrecision; text-rendering:geometricPrecision; image-rendering:optimizeQuality; fill-rule:evenodd; clip-rule:evenodd"
viewBox="0 0 4334.92 4334.92"
 xmlns:xlink="http://www.w3.org/1999/xlink"
 xmlns:xodm="http://www.corel.com/coreldraw/odm/2003">
 <defs>
  <style type="text/css">
   <![CDATA[
    .fil0 {fill:black;fill-rule:nonzero}
   ]]>
  </style>
 </defs>
 <g id="Capa_x0020_1">
  <metadata id="CorelCorpID_0Corel-Layer"/>
  <path class="fil0" d="M1030.96 4234.21c-28.94,-33.56 -29.91,-36.92 -14.59,-45.48 34.2,-19.09 88.22,-74.63 107.21,-110.02 19.31,-36.11 19.66,-43.79 22.32,-503.19l2.6 -466.5 144.05 0 -2.6 475.52c-2.55,463.85 -3.24,476.52 -21.87,517.18 -10.59,22.91 -34.71,58.78 -53.69,79.72 -35.63,39.4 -115.23,90.77 -138.9,89.61 -7.4,-0.4 -27.53,-16.95 -44.65,-36.84l0.12 0zm487.5 -201.2c-77.81,-24.25 -118.37,-84.01 -118.37,-174.43 0,-145.49 96.62,-216.93 314.36,-232.5l84.52 -5.83 -4.52 -53c-5.83,-63.05 -24.13,-94.41 -65.49,-111.71 -41.47,-17.3 -130.56,-15.15 -206.92,5.21 -34.71,9.14 -65.72,14 -68.91,10.77 -3.22,-3.25 -8.5,-22.51 -11.78,-42.76l-5.85 -36.84 65.89 -21.24c88.57,-28.58 238.22,-35.29 303.47,-13.65 53.68,17.87 103.72,68.49 117.84,119.23 5.85,20.6 9.61,138.72 9.61,293.58l0.06 259.17 -107.37 0 -5.85 -31.53c-3.23,-17.36 -7.29,-31.53 -8.96,-31.53 -1.97,0 -20.54,11.68 -41.82,26.03 -78.33,52.53 -166.85,67.34 -249.45,41.61l-0.46 -0.58zm161.39 -94.59c17.54,-5.22 51.02,-21 74.39,-35.81l42.48 -26.96 0 -162.68 -61.45 0c-76.02,0 -144.73,19.61 -172.5,49.18 -48.83,51.94 -26.38,156.6 37.54,175.05 39.57,11.39 42.64,11.45 79.54,1.28l0 -0.06zm1109.56 94.59c-77.51,-24.19 -118.3,-84.01 -118.3,-173.73 0,-141.67 102.5,-218.44 311.29,-233.08l85.33 -5.85 0 -41.46c0,-55.08 -24.01,-100.84 -63.12,-120.39 -41.25,-20.6 -129.41,-19.84 -211.85,1.96 -34.7,9.15 -65.71,14.01 -68.9,10.76 -3.24,-3.24 -8.5,-22.49 -11.8,-42.75l-5.83 -36.85 65.89 -21.23c88.56,-28.57 238.22,-35.28 303.47,-13.64 53.68,17.87 103.72,68.49 117.84,119.21 5.85,20.6 9.61,138.73 9.61,293.6l0 259.16 -107.32 0 -5.84 -31.52c-3.24,-17.36 -7.29,-31.53 -8.97,-31.53 -1.96,0 -20.53,11.68 -41.82,26.03 -78.33,52.52 -166.84,67.32 -249.44,41.59l-0.24 -0.28zm161.46 -94.59c17.53,-5.22 51.03,-21 74.34,-35.81l42.52 -26.96 0 -162.68 -61.45 0c-75.78,0 -144.67,19.57 -172.2,48.89 -47.62,50.62 -26.85,152.55 35.33,173.73 39.63,13.54 42.64,13.64 81.46,2.59l0 0.24zm-830.89 -245.4l-103.51 -336.11 71.58 -2.59c39.33,-1.28 73.51,-0.6 76.06,1.95 7.98,7.98 134.92,422.13 146.24,477.21 5.85,28.98 14.3,49.28 18.4,45 8.73,-8.85 66.48,-196.22 87.12,-282.65 7.7,-32.17 20.94,-99.15 29.46,-148.73l15.43 -90.14 73.65 -2.6c40.5,-1.27 73.59,0.58 73.59,4.58 0,3.88 -13.84,65.94 -30.66,137.8 -34.83,149.01 -89.85,323.26 -140.29,444.4l-34.54 82.95 -179.1 5.21 -103.43 -336.28zm-242.23 -680.65c-162.6,-9.96 -405.63,-55.66 -405.63,-76.32 0,-4.5 3.23,-6.47 7.69,-3.87 4.52,2.6 70.12,11.75 146.48,20.31 194.31,21.8 685.51,21.86 882.44,0.16 351.95,-38.87 607.7,-102.79 711.2,-177.75 40.72,-29.52 43.15,-28.71 23.94,8.44 -59.58,115.29 -311.22,193.56 -725.66,225.84 -110.02,8.56 -518.68,10.53 -640.46,3.24l0 -0.05zm-288.43 -152.16c-241.87,-22.56 -437.69,-54.26 -480.33,-77.75 -69.77,-38.36 -46.8,-89.83 65.49,-146.76 97.71,-49.52 278.83,-87.01 337.67,-69.88 23.83,6.94 19.27,9.15 -45.07,21.98 -83.88,16.78 -165.97,46.35 -195.13,70.29 -30.37,24.92 -13.13,45.65 58.43,69.77 151.1,51.08 384.59,69.13 815.97,63 613.56,-8.8 956.55,-72.03 937.28,-172.8 -5.84,-28.98 1.91,-29.1 29.04,-0.58 18.22,19.37 19.67,25.57 10.77,45.17 -32.98,72.49 -277.04,149.09 -605.63,190.1 -169.79,21.23 -732.78,25.69 -928.43,7.46l-0.06 0zm366.3 -274.37c-154.4,-17.76 -292.19,-69.14 -321.07,-119.81 -12.2,-21.34 -11.74,-25.58 5.21,-48.19 18.63,-24.99 87.01,-65.43 111.37,-65.89 10.18,-0.24 10.63,1.97 1.9,10.59 -17.76,17.75 -12.32,39.63 12.61,51.08 79.09,36.04 423.11,43.55 596.78,13.07l101.82 -17.81 80.69 39.61c44.38,21.82 80.64,41.26 80.64,43.17 0,8.84 -203.39,67.27 -279.41,80.18 -106.03,17.98 -296.53,24.86 -390.88,14l0.34 0zm-120.33 -333.62c-150.7,-18.98 -270.09,-60.99 -288.55,-101.47 -6.94,-15.27 -6.48,-26.73 2.61,-43.4 11.21,-21.46 75.54,-62.12 119,-75.26 20,-5.83 20.06,-5.83 4.5,21.36 -33.15,57.96 9.43,75.54 220.87,91.17 191.02,14.11 390.2,1.33 633.46,-41.48 26.38,-4.52 39.45,-0.29 78.44,25.97 25.68,17.36 52.06,33.38 58.49,35.63 6.47,2.61 9.19,6.83 6.47,10.13 -7.92,8.62 -186.21,47.26 -296.47,64.28 -111.07,17.12 -442.16,25.15 -538.3,13.11l-0.52 -0.04zm979.98 -37.26c170.65,-103.96 251.76,-175.17 292.37,-256.74 26.03,-52.29 30.19,-112.92 10.93,-159.08 -15.61,-37.38 -66.99,-82.44 -110.02,-96.68 -32.29,-10.63 -104.77,-8.32 -143.7,4.52 -15.96,5.21 -15.68,3.94 3.23,-12.5 48.61,-42.97 183.33,-51.08 258.42,-15.49 79.55,37.6 130.75,109.62 130.75,183.89 0,66.42 -25.92,119.41 -89.44,182.87 -68.91,68.85 -146.76,114.89 -267.21,157.93 -98.81,35.29 -131.91,39.68 -85.09,11.16l-0.24 0.12zm-1140.33 -275.31c-100.78,-5.83 -258.25,-30.43 -306.43,-48.47 -58.14,-21.75 -72.55,-36.39 -59.59,-60.57 16.32,-30.43 168.98,-94.01 298.44,-124.21 62.02,-14.45 198.32,-27.88 198.32,-19.55 0,2.61 -21.29,9.96 -47.32,16.15 -78.11,18.33 -189.82,61.49 -218.32,84.28 -22.28,17.81 -24.88,23.72 -15.51,34.99 53.11,64.05 682.22,60.06 1119.45,-7.11 47.14,-7.23 99.85,-15.32 117.2,-17.99 64.38,-9.89 -98.4,67.56 -180.32,85.73 -225.03,49.92 -601.12,73.47 -905.92,56.75zm630.16 -204.96c62.36,-81.74 64.95,-165.62 7.52,-245.91 -88.22,-123.23 -102.23,-145.55 -120.63,-191.77 -13.77,-34.66 -19.84,-70.07 -20.36,-117.62 -0.58,-59.64 3.24,-75.54 29.39,-129.18 54.61,-110.84 167.77,-205.19 349.23,-291.16 72.9,-34.53 264.96,-105.8 264.96,-98.33 0,1.27 -35.45,24.01 -78.84,50.26 -121.33,73.53 -253.68,172.62 -311.3,233.09 -116.85,122.7 -116.05,208.83 3.94,373.3 25.22,34.7 51.54,76.64 58.48,93.2 18.87,45.17 15.8,117.31 -7.05,165.27 -21.12,44.49 -129.7,157 -177.49,184.01l-29.5 16.62 31.65 -41.78zm-275.55 -187.09c-180.48,-179.27 -255.98,-303.3 -254.77,-418.47 1.33,-115.07 71.56,-204.27 313.73,-398.18 247.06,-197.8 327.48,-288.97 366.76,-415.83 19.04,-61.38 25.11,-170.66 12.73,-227.11 -5.85,-26.28 -5.21,-28.71 7.05,-18.75 7.52,6.48 23.32,32.52 35.01,58.43 29.72,65.77 29.9,211.62 0.34,286.7 -46.1,117.03 -145.73,247.19 -270.1,352.76 -192.58,163.55 -239.55,213.76 -283.92,303.84 -24.47,49.56 -28.59,67.79 -28.59,126.16 0,91.86 23.89,146.94 140.06,321.82 50.68,76.36 89.95,141.04 87.3,143.7 -2.61,2.6 -59.18,-49.06 -125.6,-115.07z"/>
 </g>
</svg>
