<?xml version="1.0" encoding="UTF-8"?>
<!DOCTYPE svg PUBLIC "-//W3C//DTD SVG 1.1//EN" "http://www.w3.org/Graphics/SVG/1.1/DTD/svg11.dtd">
<!-- Creator: CorelDRAW 2021 (64-Bit) -->
<svg xmlns="http://www.w3.org/2000/svg" xml:space="preserve" width="43.3492mm" height="43.3492mm" version="1.1" style="shape-rendering:geometricPrecision; text-rendering:geometricPrecision; image-rendering:optimizeQuality; fill-rule:evenodd; clip-rule:evenodd"
viewBox="0 0 4334.92 4334.92"
 xmlns:xlink="http://www.w3.org/1999/xlink"
 xmlns:xodm="http://www.corel.com/coreldraw/odm/2003">
 <defs>
  <style type="text/css">
   <![CDATA[
    .fil0 {fill:black;fill-rule:nonzero}
   ]]>
  </style>
 </defs>
 <g id="Capa_x0020_1">
  <metadata id="CorelCorpID_0Corel-Layer"/>
  <path class="fil0" d="M247.65 4271.89c-59.58,-17.23 -126.33,-71.92 -158.88,-129.96l-31.16 -55.5 0 -3836.9 31.16 -55.34c33.68,-60.22 99.62,-112.89 163.49,-130.61 51.37,-14.37 3779.19,-14.37 3830.4,0 63.91,17.72 129.85,70.39 163.64,130.61l31.01 55.34 0 3836.9 -31.01 55.5c-33.79,60.06 -99.73,112.89 -163.64,130.62 -47.4,13.11 -3789.47,12.63 -3835.01,-0.66zm3813.19 -210.6c19.95,-19.9 20.12,-33.51 20.12,-1893.25 0,-1859.87 -0.17,-1873.3 -20.12,-1893.38 -20.08,-19.91 -33.68,-20.07 -1893.39,-20.07 -1859.69,0 -1873.3,0 -1893.2,20.07 -20.08,20.08 -20.24,33.51 -20.24,1893.38 0,1859.74 0.16,1873.35 20.24,1893.25 19.9,20.08 33.51,20.24 1893.2,20.24 1859.71,0 1873.31,-0.16 1893.39,-20.24zm-2411.97 -196.67c-103.1,-22.3 -239.09,-92.81 -319.24,-165.71 -70.34,-63.71 -176.15,-209.02 -162.06,-222.46 4.24,-4.29 75.4,-48.69 157.93,-98.84l150.04 -91.08 32.75 46.02c18.01,25.3 49.35,59.79 69.59,76.38 98.96,81.57 256.13,91.53 329.8,21.01 57.72,-55.33 58.37,-64.2 58.37,-795.45l0 -667.86 403.63 0 -3.32 737.61c-2.99,638.59 -5.66,744.69 -19.42,789.73 -59.63,193.85 -176.81,311.03 -361.14,361.62 -82.86,22.59 -252.66,27.21 -336.93,9.03zm1459.99 6.15c-228,-36.51 -394.48,-151.02 -517.16,-355.26l-22.47 -37.32 302.32 -202.1 38.09 57.72c88.4,134.1 177.09,193.68 299.94,201.62 177.24,11.37 283.49,-77.31 264.23,-220.56 -12.51,-92.7 -68.17,-135.85 -319.41,-247.92 -96.94,-43.35 -205.7,-98.69 -241.6,-123.17 -174.38,-118.44 -251.9,-261.08 -251.9,-463.91 0,-238.93 135.52,-416.17 372.72,-487.3 145.76,-43.79 355.1,-27.03 489.65,39.18 74.64,36.83 177.73,133.45 221.52,207.61l21.01 35.74 -140.85 89.98c-77.64,49.46 -146.9,91.36 -153.86,92.98 -7.12,1.73 -15.5,-5.22 -18.66,-15.34 -3.32,-10.12 -27.03,-39.87 -52.82,-66.1 -88.04,-89.34 -220.72,-102.32 -306.73,-29.88 -53.76,45.22 -69.38,101.81 -48.86,175.79 18.98,68.33 83.02,114.79 267.07,193.56 373.92,160.17 507.7,279.86 553.23,494.39 64.97,306.6 -92,561.33 -394.48,640.21 -87.27,22.92 -277.79,33.52 -360.98,20.08z"/>
 </g>
</svg>
