<?xml version="1.0" encoding="UTF-8"?>
<!DOCTYPE svg PUBLIC "-//W3C//DTD SVG 1.1//EN" "http://www.w3.org/Graphics/SVG/1.1/DTD/svg11.dtd">
<!-- Creator: CorelDRAW 2021 (64-Bit) -->
<svg xmlns="http://www.w3.org/2000/svg" xml:space="preserve" width="43.3492mm" height="43.3492mm" version="1.1" style="shape-rendering:geometricPrecision; text-rendering:geometricPrecision; image-rendering:optimizeQuality; fill-rule:evenodd; clip-rule:evenodd"
viewBox="0 0 4334.92 4334.92"
 xmlns:xlink="http://www.w3.org/1999/xlink"
 xmlns:xodm="http://www.corel.com/coreldraw/odm/2003">
 <defs>
  <style type="text/css">
   <![CDATA[
    .fil0 {fill:black;fill-rule:nonzero}
   ]]>
  </style>
 </defs>
 <g id="Capa_x0020_1">
  <metadata id="CorelCorpID_0Corel-Layer"/>
  <path class="fil0" d="M1181.47 4124.96l0 -47.02 232.46 0c250.41,0 260.62,-2.39 260.62,-61.02l0 -32.85 -152.06 0c-183.66,0 -260.19,-14.53 -309.94,-58.98l-36.96 -32.94 -7.58 -342.52 142.64 0 0 329.32 30.12 11.45c16.54,6.33 98.43,11.42 181.9,11.42l151.88 0 0 -352.19 142.12 0 -3.52 265.21 -3.61 265.12 -37.5 33.46c-56.35,50.35 -105.31,58.38 -358.73,58.38l-231.84 0.09 0 -46.93zm1931.19 -93.96l-45.87 -46.93 -153.11 -0.09c-175.21,-0.09 -231.56,-11.96 -278.51,-58.8l-33.18 -33.2 0 -426.88 38.38 -38.3c50.2,-50.17 127.22,-66.56 302.09,-64.01 168.45,2.39 240.83,19.81 284.33,68.5l32.66 36.54 0 424.15 -36.29 36.26 -36.36 36.29 62.78 56.26 62.71 56.17 -76.89 0.52c-74.48,0.46 -78.26,-0.96 -122.74,-46.48zm-158.47 -136.3c0,-4.05 -22.46,-27.57 -49.84,-52.38l-49.93 -45.18 76.86 -0.44c74.41,-0.43 78.28,1.06 122.58,46.31 42.87,43.94 46.93,45.6 66.9,27.57 18.75,-16.99 21.32,-40.26 21.32,-193.53 0,-229.28 7.13,-221.28 -196.98,-221.28 -211.57,0 -202.23,-9.94 -202.05,214.93 0.09,98.09 4.03,184.11 8.79,191.16 18.32,27.03 58.38,39.35 129,39.72 40.32,0.15 73.35,-2.91 73.35,-6.88zm-2436.52 74.41c-24.75,-20.79 -65.16,-97.4 -140.34,-265.48l-105.67 -236.23 -6.33 516.67 -128.64 0 0 -287.66c0,-268.37 1.49,-289.15 22.63,-310.3 25.52,-25.51 113.67,-42.59 155.22,-29.92 52.74,16.02 75.1,52.74 174.26,286.42 54.93,129.36 102.49,235.19 105.64,235.19 3.27,0 39.82,-77.74 81.29,-172.84 121.34,-278.34 139.81,-313.36 176.27,-334.93 60.4,-35.66 171.51,-14.98 199.44,36.96 8,15.06 12.66,124.67 12.66,300.42l0 276.66 -142.18 0 3.6 -257.72c1.94,-141.76 0.27,-254.02 -3.78,-249.44 -4.06,4.48 -53.36,111.19 -109.55,237.11 -56.27,125.91 -111.89,238.88 -123.71,251.12 -13.2,13.48 -43.93,24.3 -78.89,27.66 -48.51,4.67 -62.5,1.04 -91.92,-23.69zm3545.94 13.12c-60.68,-33.2 -72.28,-108.92 -24.05,-157.18 59.44,-59.44 159.55,-16.81 158.67,67.44 -0.43,46.6 -19.91,74.68 -62.96,91.14 -39,14.81 -42.17,14.71 -71.66,-1.4zm99.59 -41.66c17.6,-22.36 22.79,-40.68 17.51,-61.62 -11.54,-46.24 -28.27,-59.26 -75.98,-59.26 -51.42,0 -74.41,21.9 -74.41,70.87 0,77.58 85.86,109.79 132.88,50.01zm-92.11 -47.53c-1.24,-48.78 2.2,-61.66 16.82,-61.66 47.18,0 85.84,48.78 49.12,62.08 -11.79,4.24 -11.7,10.39 0,30.39 8.29,13.91 9.78,24.99 3.36,24.99 -6.27,0 -17.09,-10.55 -23.96,-23.5 -16.55,-31 -32.4,-29.76 -38.66,2.9 -2.82,14.54 -5.79,-1.31 -6.68,-35.2zm54.15 -23.43c2.91,-8.63 -5.21,-14.71 -19.54,-14.71 -14.45,0 -24.49,7.57 -24.49,18.5 0,21.57 36.64,18.4 44.03,-3.79zm-2204.14 73.35l0 -41.14 187.11 0c180.58,0 242.65,-9.15 261.49,-38.81 4.94,-7.67 9,-36.11 9.06,-63.23 0.28,-72.56 -24.99,-85.76 -164.63,-85.76 -129.09,0 -223.22,-23.06 -265.12,-64.9 -24.21,-24.21 -27.91,-39.09 -27.91,-111.82 0,-77.83 2.46,-86.2 34.87,-116.4 51.77,-48.42 110.4,-57.84 345.68,-55.39l212.29 2.22 0 82.16 -216.25 3.24c-135.34,1.94 -222.17,8.02 -231.92,16.12 -8.91,7.3 -15.51,36.63 -15.51,68.32 0,83.22 18.33,94.31 155.85,94.31 140.09,0 221.79,16.82 267.15,54.93 32.93,27.75 34.86,34.08 34.86,117.46 0,82.68 -2.2,90.25 -34.86,120.73 -51.33,47.9 -116.5,59.07 -346.05,59.07l-206.11 0 0 -41.11zm1555.91 23.85c-37.41,-10.03 -69.98,-28.7 -90.95,-52.2l-32.66 -36.54 0 -516.26 129.07 0 0 250.95c0,218.99 2.48,253.07 19.38,267.15 14.43,11.98 73.26,17.09 228.93,19.98l209.56 3.87 0 80.31 -202.53 -0.78c-129.25,-0.55 -223.56,-6.52 -260.8,-16.48zm627.72 -472.29c-109.1,-87.87 -158.06,-118.71 -301.75,-190.11 -227.96,-113.32 -358.45,-222.23 -427.92,-357.3 -30.9,-60.23 -21.23,-69.74 117.56,-114.91 94.98,-30.9 137.24,-37.78 262.81,-42.78 82.33,-3.27 149.68,-9.51 149.68,-13.91 0,-21.05 -64.54,-68.68 -352.2,-259.76 -59.51,-39.53 -159.27,-81.8 -275.86,-117 -151.7,-45.78 -185.35,-76.35 -262.91,-239.32 -85.13,-178.84 -247.25,-535.61 -271.09,-596.72 -14.55,-37.17 -57.41,-120.01 -95.37,-184.2 -190.97,-323.06 -495.9,-610.72 -814.62,-768.59 -156.57,-77.48 -190.2,-87.08 -340.51,-96.59 -127.93,-8.18 -136.12,-10.82 -214.92,-71.05 -68.07,-51.95 -241.89,-139.57 -311.97,-157.17 -67.16,-16.91 -105.12,-7.91 -121.94,28.96 -21.48,47.2 2.82,102.67 104.68,238.37 130.94,174.42 153.84,218.26 222.68,426.25 69.22,208.84 119.22,312.11 193.11,398.67 65.41,76.61 66.56,105.49 11,268.73 -52.21,153.66 -68.95,292.94 -52.75,439.02 23.6,212.2 106.37,396.22 178.21,396.22 16.2,0 21.32,-9.15 21.32,-38.14 0.09,-70.43 35.75,-259.12 58.81,-311.24 12.6,-28.44 43.93,-78.19 69.74,-110.58 45.69,-57.32 47.29,-58.2 57.75,-31.36 128.03,327.02 313.72,646.38 475.74,818.07 45.87,48.6 75.47,83.83 65.77,78.2 -32.31,-18.76 -192.13,-163.09 -305.44,-275.79 -97.65,-97.1 -120.64,-128.19 -177.94,-240.01l-65.77 -128.46 -12.33 63.93c-6.87,35.11 -16.03,92.98 -20.44,128.46 -15.85,128.27 -56.08,176.08 -148.1,176.08 -52.02,0 -62.95,-5.09 -114.64,-53.35 -63.93,-59.87 -127.58,-177.87 -160.94,-298.85 -16.39,-59.07 -21.05,-118.85 -20.87,-264.12 0.18,-164.49 4.13,-202.87 31.33,-308.36 17.09,-66.23 37.6,-138.33 45.44,-160.27 13.73,-37.84 12.33,-42.08 -29.57,-90.77 -61.29,-71.05 -147.66,-254.55 -215.47,-457.24 -60.05,-179.8 -49.75,-161.66 -251.55,-440.96 -71.86,-99.5 -92.1,-179.96 -63.84,-254.01 10.82,-28.17 35.76,-66.65 55.47,-85.59 34.24,-32.84 40.24,-34.23 143.61,-33.9 95.01,0.27 118.16,4.76 195.82,38.21 81,34.87 186.04,97.49 258.24,153.93 21.76,16.99 61.29,26.05 152.6,34.93 220.56,21.51 352.2,78.74 624.63,271.56 122.3,86.55 344.44,295.05 433.03,406.35 132.76,166.85 221.07,312.67 293.54,484.72 94.31,224.26 276.83,607.97 310.29,652.71 18.76,25 65.06,51.93 159.82,92.89 158.04,68.41 285.61,148.27 463.48,289.94 116.4,92.71 227.62,212.02 227.62,244.16 0,14.61 -63.65,33.02 -170.3,49.14 -74.84,11.36 -263.43,50.36 -314.24,65.05 -19.38,5.64 -19.2,8.12 2.91,39.2 13.03,18.21 54.06,52.99 91.2,77.29 187.47,122.31 224.62,149.25 278.87,202.08 118.07,115.1 241.26,266 226.9,277.98 -2.12,1.75 -32.93,-20.16 -68.41,-48.69zm-2584.18 -2592.88c-14.09,-31.88 -43.48,-78.99 -65.32,-104.7 -35.57,-41.55 -37.6,-47.45 -18.85,-54.84 48,-19.03 77.75,-9.7 123.89,38.72 40.84,43.07 45.53,53.72 39.63,90.34 -3.7,22.81 -17.36,52.14 -30.3,64.99l-23.51 23.51 -25.54 -58.02z"/>
 </g>
</svg>
