<?xml version="1.0" encoding="UTF-8"?>
<!DOCTYPE svg PUBLIC "-//W3C//DTD SVG 1.1//EN" "http://www.w3.org/Graphics/SVG/1.1/DTD/svg11.dtd">
<!-- Creator: CorelDRAW 2021 (64-Bit) -->
<svg xmlns="http://www.w3.org/2000/svg" xml:space="preserve" width="43.3492mm" height="43.3492mm" version="1.1" style="shape-rendering:geometricPrecision; text-rendering:geometricPrecision; image-rendering:optimizeQuality; fill-rule:evenodd; clip-rule:evenodd"
viewBox="0 0 4334.92 4334.92"
 xmlns:xlink="http://www.w3.org/1999/xlink"
 xmlns:xodm="http://www.corel.com/coreldraw/odm/2003">
 <defs>
  <style type="text/css">
   <![CDATA[
    .fil0 {fill:black;fill-rule:nonzero}
   ]]>
  </style>
 </defs>
 <g id="Capa_x0020_1">
  <metadata id="CorelCorpID_0Corel-Layer"/>
  <path class="fil0" d="M2046.61 4259.93c-659.37,-41.66 -1281.81,-410.74 -1631.73,-967.51l-44.85 -71.25 33.03 -2.47c22.51,-1.81 34.21,-6.92 36.76,-16.43 2.21,-7.67 21.45,-110.6 43,-228.63l38.98 -214.64 267.61 -4.02c238.99,-3.52 274.57,-5.82 333.28,-21.42 263.22,-70.04 436.94,-282.36 505.25,-617.58 9.02,-44.09 16.31,-96.23 16.22,-115.84 -0.24,-58.34 -22.42,-146.03 -53.6,-211.58 -37.89,-79.89 -130.6,-173.31 -210.02,-211.7 -102.56,-49.58 -137.38,-52.5 -594.15,-49.92l-410.15 2.18 -107.3 581.16c-58.97,319.5 -109.39,581 -111.95,581 -6.45,0.12 -29.59,-103.03 -44.68,-198.67 -82.11,-521.44 37.26,-1062.28 330.1,-1495.9 319.49,-472.98 810,-795.28 1364.59,-896.51 256.67,-46.89 568.5,-42.03 818.8,12.79 671.15,146.9 1223.2,601.36 1490.7,1227.2 43.84,102.43 86.09,224.85 79.76,231.06 -2.31,2.34 -14.72,-1.09 -27.51,-7.66 -12.94,-6.59 -49.95,-17.9 -82.47,-25.21 -50.3,-11.34 -121.21,-13.4 -474.2,-13.4l-415.14 0 -4.24 18.52c-5.23,22.76 -308.18,1663.63 -308.18,1669.62 0,2.31 83.91,3.28 186.47,2.06l186.39 -2.19 41.53 -225.94 41.54 -225.83 262.87 -4.9c301.48,-5.71 340.2,-11.57 461.75,-69.78 52.64,-25.33 92.09,-51.64 129.38,-86.48 29.47,-27.65 53.57,-45.21 53.57,-38.97 -0.09,6.08 -7.54,42.63 -16.81,80.98 -93.17,389.53 -280.26,724.66 -562,1006.4 -360.32,360.28 -823.17,572.86 -1330.88,611.21 -124.11,9.39 -148.12,9.39 -291.72,0.25zm-94.42 -1513.08c2.46,-10.26 39.47,-208.93 82.35,-441.58 42.88,-232.63 81.85,-442.4 86.72,-466.03l8.8 -43.13 141.65 0c259.82,0 329.86,31.06 327.06,145.1 -1.1,39.31 -67.11,404.15 -124.73,687.83 -13.67,67.26 -24.86,123.63 -24.86,125.22 0,1.6 85.03,2.82 188.94,2.82 103.89,0 188.9,-1.22 188.9,-2.69 0,-1.47 13.04,-67.14 29,-145.81 82.32,-407.81 135.33,-721.95 135.21,-802.12 -0.13,-125.82 -94.18,-224.48 -248.62,-260.91 -39.11,-9.25 -111.2,-12.06 -307.8,-12.15 -141.17,-0.12 -256.64,-1.47 -256.64,-3.06 0,-1.59 18.49,-102.19 41.04,-223.76 22.54,-121.56 41.03,-223.78 41.03,-227.17 0,-3.41 -83.07,-6.08 -184.54,-6.08l-184.63 0 -4.28 18.36c-2.17,10.26 -70.78,380.77 -152.14,823.45 -81.48,442.77 -150.17,815.12 -152.76,827.55l-4.61 22.65 370.66 0 4.25 -18.49zm-1375.7 -272.13c0,-10.11 94.64,-529.49 115.73,-635.48l8.67 -43.13 165.76 0.12c114.38,0.13 183.45,3.9 223.02,12.33 119.61,25.31 170.16,83.66 175.53,202.8 8.17,176.25 -95.6,372.49 -230.45,436.32 -70.65,33.36 -105.36,38 -287.84,38.23 -139.11,0.12 -170.42,-1.94 -170.42,-11.07l0 -0.12zm2817.31 5.1c0,-3.27 27.78,-155.79 61.52,-338.73 33.87,-182.96 61.62,-335.84 61.62,-339.74 0,-3.9 87.84,-5.36 195.14,-3.4 157.13,3.06 202.32,6.46 232.03,17.65 103.32,38.98 139.49,93.55 139.61,210.74 0.12,175.15 -83.57,336.43 -214.51,413.17 -65.76,38.51 -118.14,46.52 -304.62,46.52 -93.92,0 -170.79,-2.8 -170.79,-6.21z"/>
 </g>
</svg>
