<?xml version="1.0" encoding="UTF-8"?>
<!DOCTYPE svg PUBLIC "-//W3C//DTD SVG 1.1//EN" "http://www.w3.org/Graphics/SVG/1.1/DTD/svg11.dtd">
<!-- Creator: CorelDRAW 2021 (64-Bit) -->
<svg xmlns="http://www.w3.org/2000/svg" xml:space="preserve" width="43.3492mm" height="43.3492mm" version="1.1" style="shape-rendering:geometricPrecision; text-rendering:geometricPrecision; image-rendering:optimizeQuality; fill-rule:evenodd; clip-rule:evenodd"
viewBox="0 0 4334.92 4334.92"
 xmlns:xlink="http://www.w3.org/1999/xlink"
 xmlns:xodm="http://www.corel.com/coreldraw/odm/2003">
 <defs>
  <style type="text/css">
   <![CDATA[
    .fil0 {fill:black;fill-rule:nonzero}
   ]]>
  </style>
 </defs>
 <g id="Capa_x0020_1">
  <metadata id="CorelCorpID_0Corel-Layer"/>
  <path class="fil0" d="M1136.16 4216.64c-10.44,-10.51 -38.75,-120.03 -200.23,-774.29 -103.47,-419.12 -222.2,-899.82 -263.83,-1068.21 -400.03,-1617.43 -545.61,-2211.09 -545.61,-2225.12 0,-19.04 23.81,-42.92 42.91,-42.92 6.29,0 91.66,23.09 189.68,51.34 97.95,28.2 325.1,93.53 504.73,145.13 179.56,51.63 718.01,206.66 1196.5,344.5 478.44,137.83 933.08,268.7 1010.25,290.78 891.51,255.57 1113.94,321.17 1125.56,332.07 8.93,8.42 12.31,17.02 12.31,31.73 0,18.37 -3.6,23.76 -39.6,59.76 -21.74,21.8 -674.37,649.89 -1450.34,1395.69 -775.9,745.86 -1437.57,1382.08 -1470.31,1413.93 -55.45,53.87 -60.9,57.79 -79.66,57.79 -14.49,0 -23.59,-3.42 -32.36,-12.18zm425.99 -477.6c245.52,-236.31 277.08,-268.32 267.09,-271.58 -32.02,-10.5 -847.48,-243.5 -848.54,-242.48 -0.62,0.68 47.02,195.8 105.98,433.68l107.17 432.38 44.99 -42.07c24.72,-23.14 170.25,-162.6 323.31,-309.93zm187.15 -786.2c-56.28,-228.04 -103.01,-415.31 -103.86,-416.15 -0.83,-0.84 -141.03,133.01 -311.51,297.41 -170.46,164.41 -308.53,300.34 -306.79,302.13 5.68,5.84 821.36,238.67 822.93,234.9 0.9,-2.03 -44.49,-190.25 -100.77,-418.29zm567.71 59.2c167.6,-161.09 251.85,-245.45 247.48,-247.69 -14.96,-7.6 -815.81,-235.92 -818.39,-233.33 -2.42,2.41 84.82,362.57 176.76,729.97l26.63 106.14 56.67 -55.43c31.17,-30.44 171.04,-165.3 310.85,-299.66zm-1061.7 -232.76c169.11,-163.06 308.13,-298.15 308.92,-300.16 1.68,-4.44 -820.35,-241.87 -824.21,-238.04 -2.2,2.18 193.61,806.64 201.58,828.26 1.29,3.48 3.21,6.34 4.27,6.34 1.01,0 140.25,-133.39 309.44,-296.4zm1340.8 -110.48c0.11,-8.14 -205.81,-840.84 -208.79,-844.28 -1.74,-2.01 -145.24,133.36 -318.91,300.79 -200.19,193.05 -313.15,305.38 -308.59,307.08 16,5.89 823.98,239.32 829.83,239.77 3.54,0.23 6.46,-1.28 6.46,-3.36zm440.63 -348.14c158.73,-152.89 286.97,-279.54 284.96,-281.4 -2.03,-1.91 -141.44,-42.96 -309.83,-91.28 -168.34,-48.3 -356.62,-102.33 -418.29,-120.02 -61.68,-17.76 -112.56,-31.85 -113.01,-31.35 -0.52,0.51 46.45,193 104.29,427.73l105.22 426.77 28.99 -26.24c15.94,-14.44 158.89,-151.31 317.67,-304.21zm-1531.71 -358.57c-57.96,-235.01 -106.78,-426.78 -108.63,-426.04 -7.02,2.8 -632.34,607.34 -630.33,609.37 2.03,2.07 841.74,245.4 843.48,244.45 0.4,-0.23 -46.61,-192.73 -104.52,-427.78zm584.99 11.56c126.78,-121.99 230.52,-223.38 230.52,-225.18 0,-1.85 -6.35,-4.88 -14.04,-6.78 -7.75,-1.86 -193.95,-55.06 -413.85,-118.19 -219.9,-63.13 -400.32,-114.08 -400.93,-113.23 -0.79,1.18 104.19,428.73 203.78,829.77 2.64,10.73 10.72,4.33 83.47,-66.32 44.32,-42.99 184.28,-178.01 311.05,-300.07zm-1073.94 -203.55c173,-166.66 314.6,-303.7 314.6,-304.61 0,-0.89 -7.47,-3.75 -16.62,-6.4 -9.1,-2.58 -197.61,-56.78 -418.85,-120.43 -221.25,-63.58 -403.91,-114.97 -405.88,-114.12 -2.03,0.89 43.52,192.71 101.22,426.31 57.68,233.61 106.27,424.19 107.9,423.51 1.68,-0.67 144.64,-137.61 317.63,-304.26zm2323.59 166.48c-1.3,-3.48 -48.03,-191.76 -103.81,-418.39 -55.77,-226.59 -102.68,-412.01 -104.24,-412.01 -1.57,0 -142.73,134.86 -313.66,299.67l-310.72 299.66 17.65 4.95c9.65,2.74 194.39,55.99 410.46,118.28 216.1,62.29 396.01,113.52 399.82,113.74 3.82,0.28 5.84,-2.36 4.5,-5.9zm414.23 -306.33c171.37,-164.98 311.63,-301.69 311.63,-303.82 0,-2.14 -29.26,-12.31 -65.04,-22.59 -35.79,-10.28 -224.51,-64.65 -419.35,-120.81 -194.85,-56.23 -354.61,-101.67 -354.99,-100.99 -2.19,3.7 209.79,850.5 212.65,849.49 1.91,-0.73 143.73,-136.27 315.1,-301.28zm-1509.97 -393.53c-56.12,-227.09 -102.85,-413.68 -103.8,-414.7 -2.7,-2.63 -614.32,586.98 -615.05,592.87 -0.62,5.34 817.48,242.36 819.66,237.49 0.68,-1.53 -44.64,-188.57 -100.81,-415.66zm522.42 88.86c237.82,-229.62 296.79,-289.09 289.95,-292.24 -13.2,-6.13 -819.73,-237.76 -821.53,-235.96 -0.84,0.83 44.94,190 101.78,420.36l103.34 418.85 13.93 -11.35c7.64,-6.24 148.3,-141.1 312.53,-299.66zm-1410.17 40.67c0,-8.03 -198.39,-812.25 -203.11,-823.33 -3.42,-8.14 -51.89,36.45 -315.88,290.85 -171.54,165.25 -309.15,301.17 -305.9,302.08 3.26,0.83 187.32,53.98 409.01,118.07 221.7,64.08 406,116.77 409.48,117.04 3.54,0.29 6.4,-1.79 6.4,-4.71zm453.35 -359.54c145.68,-140.31 264.27,-255.85 263.48,-256.68 -1.97,-2.2 -826.24,-239.67 -827.77,-238.44 -0.66,0.51 45.23,189.29 102.07,419.47l103.24 418.57 47.06 -43.94c25.84,-24.14 166.21,-158.67 311.92,-298.98zm-990.21 -285.73c190.31,-183.67 262.15,-256.02 256.46,-258.32 -22.86,-9.21 -832.58,-240.23 -834.66,-238.15 -1.34,1.35 44.87,193.44 102.68,426.82l105.15 424.36 52.96 -49.83c29.15,-27.35 171.99,-164.57 317.41,-304.88z"/>
 </g>
</svg>
