<?xml version="1.0" encoding="UTF-8"?>
<!DOCTYPE svg PUBLIC "-//W3C//DTD SVG 1.1//EN" "http://www.w3.org/Graphics/SVG/1.1/DTD/svg11.dtd">
<!-- Creator: CorelDRAW 2021 (64-Bit) -->
<svg xmlns="http://www.w3.org/2000/svg" xml:space="preserve" width="43.3492mm" height="43.3492mm" version="1.1" style="shape-rendering:geometricPrecision; text-rendering:geometricPrecision; image-rendering:optimizeQuality; fill-rule:evenodd; clip-rule:evenodd"
viewBox="0 0 4334.92 4334.92"
 xmlns:xlink="http://www.w3.org/1999/xlink"
 xmlns:xodm="http://www.corel.com/coreldraw/odm/2003">
 <defs>
  <style type="text/css">
   <![CDATA[
    .fil0 {fill:black;fill-rule:nonzero}
   ]]>
  </style>
 </defs>
 <g id="Capa_x0020_1">
  <metadata id="CorelCorpID_0Corel-Layer"/>
  <path class="fil0" d="M170.83 4156.45c-0.17,-11.63 58.31,-235.85 129.91,-498.67l130.24 -477.55 -85.74 -206.36c-272.1,-655.57 -219.87,-1324.61 148.1,-1895.52 266.97,-414 655.25,-706.58 1129.55,-850.78 208.55,-63.39 678.03,-86.97 898.81,-44.97 767.67,145.75 1397.04,729.24 1586.82,1471.47 74.11,289.64 74.11,708.71 0,998.2 -183.74,718.21 -792.32,1305.72 -1511.13,1458.57 -149,31.64 -296.31,40.17 -527.8,30.24 -312.58,-13.33 -435.24,-42.3 -795.73,-187.62 -73.52,-29.61 -142.5,-17.99 -567.81,95.07 -511.96,136.3 -534.79,140.79 -535.22,107.92zm2401.28 -383.44c599.41,-158.65 1060.08,-616.79 1212.04,-1205.09 56.12,-217.36 57.08,-619.57 1.7,-832.01 -117.69,-451.51 -462.83,-870.6 -883.02,-1072.32 -289.8,-139.08 -511.84,-183.3 -827.2,-165 -1202.75,69.78 -1921.24,1325.56 -1382.76,2417.12l100.78 204.07 -75.34 280.79c-41.39,154.4 -68.7,287.45 -60.49,295.51 8.06,8.23 142.34,-19.36 298.5,-61.4l283.56 -76.13 184.54 84.83c101.54,46.83 253.63,103.56 337.99,126.22 199.25,53.31 614.48,55.17 809.7,3.41zm-140.32 -708.92c-247.48,-79.23 -500.81,-228.24 -692.48,-407.33 -316.13,-295.36 -540.82,-632.91 -578.49,-869.36 -51.01,-318.14 239.7,-668.6 442.22,-533.21 64.49,43.07 229.15,412.26 222.64,499.1 -2.19,27.59 -35.96,92.26 -75.34,143.9 -39.37,51.63 -71.64,110.22 -71.64,130.39 0,59.38 227.91,337.87 349.01,426.23 160.81,117.37 367.49,217.71 412.89,200.32 21.4,-8.21 75.54,-64.18 120.2,-124.35 44.65,-60.14 95.65,-115.35 113.48,-122.5 17.82,-7.1 141.55,39.26 275.08,103.13l242.79 115.98 -13.64 121.11c-15.49,137.81 -92.57,235.34 -249.32,315.83 -127.46,65.42 -294.6,65.58 -497.4,0.6l0 0.16z"/>
 </g>
</svg>
